# Blender 4.2.2 LTS
# www.blender.org
mtllib deadTree.mtl
o Cube
v -0.736284 4.296120 -1.544430
v -0.635441 4.351612 -1.546736
v -0.632810 4.351612 -1.431640
v -0.060979 3.800885 -2.185043
v -0.067110 3.914480 -2.167364
v -0.175880 3.914480 -2.205085
v -0.505346 0.767435 -0.287628
v -0.134459 0.743898 -0.557491
v 0.131449 0.860946 -0.204025
v -1.026724 3.527510 0.473517
v -1.006213 3.589996 0.432856
v -0.932810 3.565702 0.432550
v 0.405227 3.235262 0.751663
v 0.424676 3.325178 0.702949
v 0.521352 3.325178 0.741548
v 1.327297 3.020729 0.288975
v 1.331444 3.124735 0.287691
v 1.300633 3.124735 0.188258
v -0.507075 1.170058 0.149592
v -0.528112 1.222350 0.177576
v -0.478294 1.222350 0.215021
v 0.251621 -0.083863 0.306335
v 0.299428 -0.079861 0.256401
v -0.575573 -0.060672 -0.061889
v -0.626008 0.049557 -0.062001
v -0.626277 0.049557 0.059218
v 0.350431 -0.151950 -0.586172
v 0.374718 -0.044359 -0.636455
v 0.265564 -0.044359 -0.689177
v 0.558201 3.018355 0.417085
v 0.623960 3.056319 0.530596
v 0.614757 3.145742 0.383403
v 1.296486 3.020729 0.189543
v 0.490899 3.072568 0.530472
v 0.624759 3.176166 0.511422
v 0.501903 3.235262 0.790262
v 0.073810 2.850095 0.393879
v 0.044110 2.967889 0.335685
v 0.138682 2.947076 0.236004
v 0.504419 3.179850 0.482364
v -0.050504 2.495104 -0.184305
v -0.236755 2.513597 -0.097774
v -0.266928 2.669033 -0.170321
v -0.115898 2.671560 -0.276607
v 0.168267 2.829934 0.294013
v -1.122062 3.268456 0.057481
v -1.097212 3.344968 -0.014725
v -0.995796 3.356186 0.046520
v -0.953321 3.503216 0.473210
v -0.494130 2.954745 -0.127357
v -0.569477 2.797218 0.026689
v -0.337864 3.038350 0.033772
v -1.021570 3.281001 0.123337
v -0.455294 2.529251 -0.211738
v -0.375783 2.675644 -0.386812
v -0.417249 2.881829 0.196135
v -0.441334 3.712046 -1.392602
v -0.510984 3.848439 -1.567561
v -0.378651 3.921260 -1.570586
v -0.375198 3.921260 -1.419549
v -0.733652 4.296120 -1.429335
v -0.423646 3.614075 -1.569285
v -0.232123 3.686781 -1.634001
v -0.240262 3.837583 -1.610531
v -0.384660 3.837583 -1.660608
v -0.169749 3.800885 -2.222764
v 0.011665 2.888959 -1.382531
v -0.001565 3.049962 -1.195082
v -0.251342 3.057733 -1.179827
v -0.243645 3.604146 -1.558116
v -0.228781 3.653406 -1.388605
v -0.138052 2.922095 -0.700205
v -0.370375 2.941140 -0.733418
v -0.242658 2.875949 -1.371370
v -0.140803 2.707043 -0.806394
v -0.309009 1.721637 -0.276295
v -0.168050 1.733386 -0.146605
v -0.239592 2.254001 -0.488136
v -0.084866 2.286253 -0.345131
v -0.229537 2.286253 -0.188604
v -0.232300 0.862782 0.071323
v -0.156750 1.579564 -0.404863
v -0.002595 1.426564 -0.248996
v -0.185048 1.388812 -0.100148
v -0.417253 0.429143 -0.148671
v 0.224720 0.669509 -0.105510
v -0.162432 0.669509 0.187743
v -0.326564 1.399328 -0.275427
v -0.341689 1.519291 -0.141944
v -0.221516 1.519429 -0.051975
v -0.457503 1.170518 0.187361
v 0.254477 -0.138339 0.262780
v -0.239621 -0.013694 0.157339
v -0.238919 -0.013694 -0.158402
v -0.370288 0.273421 -0.158694
v -0.370990 0.273421 0.157047
v -0.575842 -0.060672 0.059330
v -0.017487 -0.057249 -0.326779
v 0.266828 -0.057249 -0.189454
v 0.330089 0.222995 -0.320429
v 0.006182 0.310977 -0.437814
v 0.241277 -0.151950 -0.638893
v -0.389204 2.270771 -0.337652
v -0.143270 2.497266 -0.564960
v -0.372132 2.734327 -0.834796
v -0.143433 2.671114 -0.417902
v -0.236755 2.513597 -0.097774
v -0.455294 2.529251 -0.211738
v -0.375783 2.675644 -0.386812
v -0.136994 2.677514 -0.260385
vn 0.6523 0.3814 0.6550
vn 0.5491 0.4159 0.7249
vn -0.2131 0.0366 0.9763
vn -0.3055 -0.1388 0.9420
vn -0.3091 -0.6037 0.7348
vn -0.2445 -0.9697 -0.0005
vn -0.2176 -0.9755 -0.0338
vn 0.7850 -0.6131 -0.0885
vn 0.9630 -0.2564 -0.0834
vn 0.9767 0.1640 0.1380
vn 0.4109 0.4723 -0.7798
vn -0.8427 0.4174 0.3401
vn -0.9574 -0.2886 -0.0021
vn 0.0839 -0.9812 -0.1737
vn -0.6152 -0.2822 -0.7361
vn -0.5699 -0.2034 -0.7961
vn -0.9391 -0.0116 -0.3435
vn -0.5829 -0.1241 -0.8030
vn 0.9846 -0.1709 -0.0367
vn -0.3919 0.6868 -0.6122
vn 0.9491 0.2545 -0.1858
vn 0.6547 -0.4508 -0.6067
vn 0.6944 0.1388 0.7061
vn 0.6414 -0.1014 0.7605
vn 0.6644 -0.4452 0.6004
vn -0.9032 -0.0221 -0.4287
vn -0.0000 1.0000 -0.0000
vn 0.0327 -0.9984 -0.0469
vn 0.0153 0.1230 0.9923
vn -0.7049 0.0558 -0.7071
vn -0.5911 -0.2146 -0.7775
vn 0.0083 -0.6770 -0.7359
vn -0.1128 -0.9208 0.3733
vn 0.0868 0.9677 -0.2367
vn -0.2694 0.8926 -0.3616
vn 0.8762 0.0758 -0.4759
vn 0.2984 -0.8406 0.4520
vn 0.3170 0.6806 -0.6606
vn -0.4790 -0.5152 -0.7108
vn 0.9392 0.2903 -0.1831
vn 0.0464 -0.2481 -0.9676
vn -0.0797 -0.9589 -0.2723
vn 0.9656 -0.1595 0.2052
vn 0.5917 0.2023 0.7804
vn -0.7275 0.2184 -0.6504
vn -0.3773 0.7778 0.5027
vn 0.2986 -0.8749 -0.3813
vn 1.0000 -0.0044 0.0064
vn -0.0336 0.7472 0.6637
vn -0.1483 -0.8353 0.5294
vn 0.5111 -0.4532 0.7303
vn -0.2847 -0.0698 -0.9561
vn -0.9321 -0.3481 0.0997
vn 0.0111 0.9908 -0.1345
vn 0.3168 0.0794 0.9452
vn 0.0301 -0.9863 0.1622
vn 0.3860 -0.4607 -0.7992
vn -0.9093 -0.4161 -0.0020
vn -0.5000 -0.5558 0.6641
vn 0.9544 -0.0417 -0.2957
vn -0.3203 0.5039 0.8022
vn -0.5203 -0.4122 0.7479
vn 0.1684 0.4982 0.8506
vn -0.6272 0.0321 -0.7782
vn 0.9666 0.1027 -0.2350
vn -0.4819 0.8762 0.0110
vn -0.4904 -0.4449 -0.7494
vn 0.9104 0.3403 0.2353
vn -0.5767 0.4821 0.6595
vn 0.0100 0.9999 0.0134
vn 0.3233 0.1625 -0.9322
vn 0.4241 0.8502 -0.3118
vn -0.9858 0.0533 -0.1596
vn 0.1674 0.8552 -0.4905
vn 0.9175 0.0395 0.3958
vn 0.2649 -0.8302 0.4905
vn -0.4423 0.3568 0.8228
vn -0.2266 0.8532 -0.4697
vn 0.4206 -0.3588 -0.8332
vn -0.8622 0.0522 0.5039
vn 0.1449 -0.8568 0.4949
vn -0.2619 -0.7910 0.5530
vn -0.2049 0.9010 -0.3825
vn 0.9046 0.0175 -0.4260
vn -0.9466 0.3221 0.0162
vn 0.2361 0.8341 -0.4985
vn 0.9508 -0.3095 0.0120
vn -0.4428 -0.5546 0.7046
vn -0.4599 -0.4986 -0.7348
vn 0.3120 0.6102 0.7283
vn 0.3189 0.6863 -0.6537
vn -0.3533 -0.6912 0.6304
vn -0.9054 0.0016 -0.4246
vn 0.3107 0.7058 -0.6367
vn 0.8590 0.0375 0.5106
vn -0.8938 -0.4483 0.0120
vn -0.0401 0.0314 -0.9987
vn 0.8581 0.5131 -0.0196
vn 0.0529 0.0766 0.9957
vn 0.2183 -0.9621 -0.1633
vn 0.9547 0.0052 0.2976
vn -0.0429 0.9914 0.1236
vn -0.9337 0.0128 -0.3578
vn 0.0700 0.3276 0.9422
vn -0.0298 -0.2483 -0.9682
vn 0.9390 0.2993 -0.1693
vn -0.9683 -0.2275 0.1035
vn 0.0438 0.9640 0.2623
vn 0.9641 -0.1274 0.2330
vn -0.9681 0.1396 -0.2081
vn -0.7164 -0.1753 -0.6753
vn 0.0361 -0.9557 -0.2922
vn 0.6934 -0.0096 -0.7205
vn 0.7124 0.1398 0.6877
vn -0.6789 -0.0184 0.7340
vn 0.7692 0.1338 -0.6249
vn -0.5777 0.1317 -0.8055
vn -0.7859 0.2322 0.5730
vn 0.5940 0.2006 0.7790
vn -0.5730 -0.4083 -0.7107
vn 0.7868 0.0809 -0.6119
vn 0.4951 0.5742 0.6520
vn -0.8059 0.0442 0.5904
vn -0.9238 0.1401 -0.3563
vn 0.3424 -0.8800 -0.3293
vn 0.7430 -0.0444 0.6678
vn -0.3776 0.7779 0.5024
vn 0.1383 -0.9904 0.0003
vn -0.2582 -0.1191 -0.9587
vn -0.6590 0.7521 -0.0015
vn -0.2625 -0.1191 0.9576
vn -0.1017 -0.9723 0.2106
vn 0.9668 -0.1107 0.2302
vn 0.3760 0.7177 -0.5861
vn -0.7792 -0.1294 -0.6132
vn 0.0280 -0.7391 -0.6730
vn -0.9997 0.0252 -0.0048
vn 0.0965 0.7894 0.6062
vn 0.9999 -0.0154 0.0053
s 0
usemtl Material
f 23//1 86//1 22//1
f 86//2 87//2 22//2
f 87//3 96//3 22//3
f 96//4 93//4 22//4
f 93//5 92//5 22//5
f 93//6 94//6 92//6
f 94//7 98//7 92//7
f 92//8 99//8 23//8
f 99//9 100//9 23//9
f 100//10 86//10 23//10
f 100//11 101//11 86//11
f 85//12 96//12 87//12
f 85//13 95//13 96//13
f 98//14 99//14 92//14
f 95//15 98//15 94//15
f 95//16 101//16 98//16
f 40//17 34//17 13//17 14//17
f 95//18 85//18 101//18
f 70//19 63//19 71//19
f 59//20 65//20 58//20
f 41//21 106//21 44//21
f 78//22 104//22 79//22
f 90//23 83//23 77//23
f 90//24 84//24 83//24
f 22//25 92//25 23//25
f 103//26 54//26 55//26
f 54//27 109//27 55//27
f 55//28 110//28 43//28
f 43//27 107//27 42//27
f 42//27 108//27 54//27
f 60//29 57//29 71//29
f 78//30 103//30 104//30
f 62//31 58//31 65//31
f 70//32 62//32 63//32
f 31//33 34//33 30//33
f 32//34 40//34 35//34
f 38//35 44//35 43//35
f 41//36 44//36 39//36
f 37//37 41//37 45//37
f 52//38 50//38 47//38
f 47//39 51//39 46//39
f 68//40 67//40 70//40
f 70//41 74//41 62//41
f 75//42 105//42 74//42
f 68//43 75//43 67//43
f 81//44 9//44 83//44
f 88//45 82//45 7//45
f 90//46 89//46 20//46
f 19//47 84//47 91//47
f 106//48 104//48 75//48
f 72//49 73//49 106//49
f 34//50 31//50 36//50 13//50
f 41//51 42//51 80//51 79//51
f 32//52 18//52 33//52 30//52
f 57//53 58//53 62//53
f 35//54 17//54 18//54 32//54
f 31//55 16//55 17//55 35//55
f 31//56 30//56 33//56 16//56
f 102//57 29//57 28//57 27//57
f 97//58 26//58 25//58 24//58
f 19//59 91//59 21//59 20//59
f 33//60 18//60 17//60 16//60
f 36//61 15//61 14//61 13//61
f 54//62 103//62 80//62 42//62
f 49//63 12//63 11//63 10//63
f 88//64 76//64 82//64
f 79//65 104//65 106//65 41//65
f 1//66 61//66 3//66 2//66
f 54//27 108//27 109//27
f 55//27 109//27 110//27
f 43//67 110//67 107//67
f 42//27 107//27 108//27
f 71//68 63//68 64//68 60//68
f 77//69 76//69 89//69 90//69
f 44//70 106//70 55//70 43//70
f 66//71 6//71 5//71 4//71
f 64//72 65//72 59//72 60//72
f 89//73 76//73 88//73
f 40//74 14//74 15//74 35//74
f 35//75 15//75 36//75 31//75
f 37//76 45//76 30//76 34//76
f 37//77 34//77 40//77 38//77
f 38//78 40//78 32//78 39//78
f 39//79 32//79 30//79 45//79
f 42//80 37//80 38//80 43//80
f 37//81 42//81 41//81
f 53//82 49//82 10//82 46//82
f 39//83 44//83 38//83
f 39//84 45//84 41//84
f 47//85 46//85 10//85 11//85
f 47//86 11//86 12//86 48//86
f 48//87 12//87 49//87 53//87
f 56//88 53//88 46//88 51//88
f 47//89 50//89 51//89
f 52//90 48//90 53//90 56//90
f 47//91 48//91 52//91
f 108//92 107//92 56//92 51//92
f 108//93 51//93 50//93 109//93
f 109//94 50//94 52//94 110//94
f 107//95 110//95 52//95 56//95
f 58//96 57//96 61//96 1//96
f 58//97 1//97 2//97 59//97
f 59//98 2//98 3//98 60//98
f 60//99 3//99 61//99 57//99
f 63//100 62//100 66//100 4//100
f 63//101 4//101 5//101 64//101
f 64//102 5//102 6//102 65//102
f 62//103 65//103 6//103 66//103
f 69//104 68//104 71//104 57//104
f 70//105 67//105 74//105
f 71//106 68//106 70//106
f 74//107 69//107 57//107 62//107
f 73//108 72//108 68//108 69//108
f 68//109 72//109 75//109
f 73//110 69//110 74//110 105//110
f 76//111 103//111 78//111 82//111
f 74//112 67//112 75//112
f 82//113 78//113 79//113 83//113
f 83//114 79//114 80//114 77//114
f 77//115 80//115 103//115 76//115
f 9//116 8//116 82//116 83//116
f 7//117 82//117 8//117
f 81//118 84//118 88//118 7//118
f 84//119 81//119 83//119
f 85//120 7//120 8//120 101//120
f 101//121 8//121 9//121 86//121
f 87//122 86//122 9//122 81//122
f 85//123 87//123 81//123 7//123
f 89//124 88//124 19//124 20//124
f 19//125 88//125 84//125
f 84//126 90//126 21//126 91//126
f 20//127 21//127 90//127
f 93//128 97//128 24//128 94//128
f 95//129 94//129 24//129 25//129
f 96//130 95//130 25//130 26//130
f 96//131 26//131 97//131 93//131
f 98//132 102//132 27//132 99//132
f 99//133 27//133 28//133 100//133
f 100//134 28//134 29//134 101//134
f 101//135 29//135 102//135 98//135
f 103//136 105//136 75//136 104//136
f 103//137 55//137 73//137 105//137
f 73//138 55//138 106//138
f 75//139 72//139 106//139
